<svg width="360" height="96" viewBox="0 0 360 96" fill="none" xmlns="http://www.w3.org/2000/svg" role="img" aria-labelledby="title desc">
  <title id="title">Aignal logo</title>
  <desc id="desc">Aignal horizontal logo with radar signal mark.</desc>
  <rect x="6" y="6" width="84" height="84" rx="8" fill="#070A16" stroke="#22F5FF" stroke-width="3"/>
  <path d="M23 72L48 21L73 72H60L54.8 60H41.2L36 72H23Z" fill="#22F5FF"/>
  <path d="M43 51H53L48 39L43 51Z" fill="#070A16"/>
  <circle cx="48" cy="56" r="19" stroke="#070A16" stroke-width="7"/>
  <circle cx="48" cy="56" r="18" stroke="#22F5FF" stroke-width="3.5"/>
  <circle cx="48" cy="56" r="8.5" stroke="#22F5FF" stroke-width="2.5"/>
  <circle cx="48" cy="56" r="4.8" fill="#22F5FF"/>
  <path d="M48 56L70 34" stroke="#070A16" stroke-width="8" stroke-linecap="square"/>
  <path d="M48 56L70 34" stroke="#22F5FF" stroke-width="4" stroke-linecap="square"/>
  <circle cx="71" cy="33" r="5" fill="#22F5FF"/>
  <path d="M78 18L81 26L89 29L81 32L78 40L75 32L67 29L75 26L78 18Z" fill="#F7FDFF"/>
  <text x="112" y="61" fill="#F7FDFF" font-family="Inter, Arial, sans-serif" font-size="38" font-weight="900" letter-spacing="0">Aignal</text>
  <path d="M253 24H333" stroke="#22F5FF" stroke-width="2" stroke-opacity=".75"/>
  <path d="M253 72H333" stroke="#FF38D1" stroke-width="2" stroke-opacity=".7"/>
</svg>
